<svg width="20" height="20" viewBox="0 0 20 20" fill="none" xmlns="http://www.w3.org/2000/svg">
<path d="M7.39014 19.9616H5.12646C2.67101 19.9616 0.67334 17.9639 0.67334 15.5085V9.42255C0.67334 6.96709 2.67101 4.96942 5.12646 4.96942H15.2202C17.6757 4.96942 19.6733 6.96709 19.6733 9.42255V11.6491C19.6733 12.059 19.3411 12.3913 18.9312 12.3913C18.5212 12.3913 18.189 12.059 18.189 11.6491V9.42255C18.189 7.78558 16.8572 6.4538 15.2202 6.4538H5.12646C3.4895 6.4538 2.15771 7.78558 2.15771 9.42255V15.5085C2.15771 17.1455 3.4895 18.4772 5.12646 18.4772H7.39014C7.80005 18.4772 8.13232 18.8095 8.13232 19.2194C8.13232 19.6293 7.80005 19.9616 7.39014 19.9616ZM19.6733 17.6979V15.7377C19.6733 14.4859 18.6549 13.4675 17.4031 13.4675H15.4429C15.033 13.4675 14.7007 13.7997 14.7007 14.2097C14.7007 14.6196 15.033 14.9518 15.4429 14.9518H17.4031C17.8364 14.9518 18.189 15.3044 18.189 15.7377V17.6979C18.189 18.1078 18.5212 18.4401 18.9312 18.4401C19.3411 18.4401 19.6733 18.1078 19.6733 17.6979ZM17.0926 17.2453C17.3756 16.9489 17.3648 16.4791 17.0684 16.196C16.7719 15.9129 16.3021 15.9237 16.019 16.2202C14.6493 17.6546 12.7261 18.4772 10.7428 18.4772H10.396C9.98609 18.4772 9.65381 18.8095 9.65381 19.2194C9.65381 19.6293 9.98609 19.9616 10.396 19.9616H10.7428C13.1297 19.9616 15.4441 18.9716 17.0926 17.2453V17.2453ZM5.53467 8.4577C5.0223 8.4577 4.60693 8.87307 4.60693 9.38544C4.60693 9.89781 5.0223 10.3132 5.53467 10.3132C6.04704 10.3132 6.4624 9.89781 6.4624 9.38544C6.4624 8.87307 6.04704 8.4577 5.53467 8.4577ZM8.72607 8.4577C8.21371 8.4577 7.79834 8.87307 7.79834 9.38544C7.79834 9.89781 8.21371 10.3132 8.72607 10.3132C9.23844 10.3132 9.65381 9.89781 9.65381 9.38544C9.65381 8.87307 9.23844 8.4577 8.72607 8.4577ZM11.9175 8.4577C11.4051 8.4577 10.9897 8.87307 10.9897 9.38544C10.9897 9.89781 11.4051 10.3132 11.9175 10.3132C12.4298 10.3132 12.8452 9.89781 12.8452 9.38544C12.8452 8.87307 12.4298 8.4577 11.9175 8.4577ZM5.53467 11.6491C5.0223 11.6491 4.60693 12.0645 4.60693 12.5768C4.60693 13.0892 5.0223 13.5046 5.53467 13.5046C6.04704 13.5046 6.4624 13.0892 6.4624 12.5768C6.4624 12.0645 6.04704 11.6491 5.53467 11.6491ZM5.53467 14.8405C5.0223 14.8405 4.60693 15.2559 4.60693 15.7682C4.60693 16.2806 5.0223 16.696 5.53467 16.696C6.04704 16.696 6.4624 16.2806 6.4624 15.7682C6.4624 15.2559 6.04704 14.8405 5.53467 14.8405ZM8.72607 11.6491C8.21371 11.6491 7.79834 12.0645 7.79834 12.5768C7.79834 13.0892 8.21371 13.5046 8.72607 13.5046C9.23844 13.5046 9.65381 13.0892 9.65381 12.5768C9.65381 12.0645 9.23844 11.6491 8.72607 11.6491ZM8.72607 14.8405C8.21371 14.8405 7.79834 15.2559 7.79834 15.7682C7.79834 16.2806 8.21371 16.696 8.72607 16.696C9.23844 16.696 9.65381 16.2806 9.65381 15.7682C9.65381 15.2559 9.23844 14.8405 8.72607 14.8405ZM11.9175 11.6491C11.4051 11.6491 10.9897 12.0645 10.9897 12.5768C10.9897 13.0892 11.4051 13.5046 11.9175 13.5046C12.4298 13.5046 12.8452 13.0892 12.8452 12.5768C12.8452 12.0645 12.4298 11.6491 11.9175 11.6491Z" fill="currentColor"/>
<path d="M7.42725 3.93036C7.01734 3.93036 6.68506 3.59808 6.68506 3.18817C6.68506 2.77893 6.35211 2.44598 5.94287 2.44598C5.53363 2.44598 5.20068 2.77893 5.20068 3.18817C5.20068 3.59808 4.86841 3.93036 4.4585 3.93036C4.04859 3.93036 3.71631 3.59808 3.71631 3.18817C3.71631 1.96044 4.71514 0.961609 5.94287 0.961609C7.1706 0.961609 8.16943 1.96044 8.16943 3.18817C8.16943 3.59808 7.83716 3.93036 7.42725 3.93036ZM16.7046 3.18817C16.7046 1.96044 15.7058 0.961609 14.478 0.961609C13.2503 0.961609 12.2515 1.96044 12.2515 3.18817C12.2515 3.59808 12.5837 3.93036 12.9937 3.93036C13.4036 3.93036 13.7358 3.59808 13.7358 3.18817C13.7358 2.77893 14.0688 2.44598 14.478 2.44598C14.8873 2.44598 15.2202 2.77893 15.2202 3.18817C15.2202 3.59808 15.5525 3.93036 15.9624 3.93036C16.3723 3.93036 16.7046 3.59808 16.7046 3.18817ZM15.1089 8.4577C14.5965 8.4577 14.1812 8.87307 14.1812 9.38544C14.1812 9.89781 14.5965 10.3132 15.1089 10.3132C15.6213 10.3132 16.0366 9.89781 16.0366 9.38544C16.0366 8.87307 15.6213 8.4577 15.1089 8.4577Z" fill="#F80D38"/>
</svg>
