<svg width="17" height="15" viewBox="0 0 17 15" fill="none" xmlns="http://www.w3.org/2000/svg">
<path d="M13.0241 12.3641H3.99222C1.79563 12.3641 0.00854492 10.8072 0.00854492 8.89361V4.14921C0.00854492 2.23526 1.79593 0.678131 3.99291 0.678131H10.5671C10.9339 0.678131 11.2312 0.937131 11.2312 1.25664C11.2312 1.57616 10.9339 1.83516 10.5671 1.83516H3.99291C2.52826 1.83516 1.33667 2.87324 1.33667 4.14921V8.89361C1.33667 10.1692 2.52796 11.2071 3.99222 11.2071H13.0241C14.4888 11.2071 15.6804 10.169 15.6804 8.89301V6.2897C15.6804 5.97019 15.9777 5.71119 16.3445 5.71119C16.7112 5.71119 17.0085 5.97019 17.0085 6.2897V8.89301C17.0085 10.807 15.2211 12.3641 13.0241 12.3641ZM12.3601 14.0996C12.3601 13.7801 12.0628 13.5211 11.696 13.5211H5.32104C4.95427 13.5211 4.65697 13.7801 4.65697 14.0996C4.65697 14.4191 4.95427 14.6781 5.32104 14.6781H11.696C12.0628 14.6781 12.3601 14.4191 12.3601 14.0996Z" fill="currentColor"/>
<path d="M16.3444 4.55416C15.9776 4.55416 15.6803 4.29516 15.6803 3.97565V2.44771C15.6803 2.10995 15.3649 1.83516 14.9772 1.83516H13.2233C12.8565 1.83516 12.5592 1.57616 12.5592 1.25664C12.5592 0.937131 12.8565 0.678131 13.2233 0.678131H14.9772C16.0973 0.678131 17.0084 1.47194 17.0084 2.44771V3.97565C17.0084 4.29516 16.7111 4.55416 16.3444 4.55416ZM14.6993 3.62285C14.9526 3.39179 14.9429 3.02559 14.6777 2.80495C14.4125 2.5843 13.9921 2.59272 13.7388 2.82378C12.1272 4.29404 9.98666 5.10375 7.71158 5.10375H7.31909C6.95233 5.10375 6.65503 5.36275 6.65503 5.68226C6.65503 6.00178 6.95233 6.26078 7.31909 6.26078H7.71158C10.353 6.26078 12.8347 5.32393 14.6993 3.62285V3.62285Z" fill="#F80D38"/>
</svg>
