<svg width="18" height="6" viewBox="0 0 18 6" fill="none" xmlns="http://www.w3.org/2000/svg">
<path d="M4.00628 4.33754C4.91786 3.81124 5.23019 2.64561 4.70389 1.73404C4.17759 0.822462 3.01196 0.510133 2.10038 1.03643C1.18881 1.56273 0.876479 2.72836 1.40278 3.63993C1.92908 4.55151 3.0947 4.86384 4.00628 4.33754Z" fill="currentColor"/>
<path d="M9.72723 4.33571C10.6388 3.80941 10.9511 2.64378 10.4248 1.73221C9.89854 0.820631 8.73291 0.508302 7.82133 1.0346C6.90975 1.5609 6.59743 2.72653 7.12372 3.6381C7.65002 4.54968 8.81565 4.86201 9.72723 4.33571Z" fill="currentColor"/>
<path d="M15.4482 4.33376C16.3598 3.80746 16.6721 2.64183 16.1458 1.73025C15.6195 0.818678 14.4539 0.506349 13.5423 1.03265C12.6307 1.55895 12.3184 2.72457 12.8447 3.63615C13.371 4.54773 14.5366 4.86006 15.4482 4.33376Z" fill="currentColor"/>
</svg>
