<svg width="15" height="15" viewBox="0 0 15 15" fill="none" xmlns="http://www.w3.org/2000/svg">
<path d="M6.19019 12.2865C2.78162 12.2865 0.00854492 9.70029 0.00854492 6.52139C0.00854492 3.34248 2.78162 0.756256 6.19019 0.756256C9.59877 0.756256 12.3718 3.34248 12.3718 6.52139C12.3718 9.70029 9.59874 12.2865 6.19019 12.2865V12.2865ZM6.19019 1.84917C3.42779 1.84917 1.18042 3.94511 1.18042 6.52139C1.18042 9.09766 3.42779 11.1936 6.19019 11.1936C8.9526 11.1936 11.2 9.09766 11.2 6.52139C11.2 3.94511 8.95257 1.84917 6.19019 1.84917V1.84917Z" fill="currentColor"/>
<path d="M14.8371 14.5962C14.7227 14.7029 14.5728 14.7563 14.4228 14.7563C14.2728 14.7563 14.1229 14.7029 14.0085 14.5962L11.3864 12.1508C11.1576 11.9374 11.1576 11.5914 11.3864 11.378C11.6153 11.1646 11.9862 11.1646 12.215 11.378L14.8371 13.8234C15.0659 14.0368 15.0659 14.3828 14.8371 14.5962V14.5962ZM8.98207 5.57451L8.59172 5.79293C8.66822 6.01583 8.70991 6.25313 8.70991 6.49939C8.70991 6.74565 8.66822 6.98295 8.59172 7.20585L8.98204 7.42427C9.25954 7.57955 9.34952 7.91521 9.18302 8.17398C9.07316 8.34475 8.87907 8.43937 8.68002 8.43937C8.57743 8.43937 8.47351 8.41423 8.37911 8.36142L7.98156 8.13895C7.66289 8.4368 7.25807 8.65407 6.80555 8.75626V9.23165C6.80555 9.53346 6.54322 9.77811 6.21961 9.77811C5.896 9.77811 5.63367 9.53346 5.63367 9.23165V8.75626C5.17084 8.65172 4.75825 8.42645 4.43637 8.11811L4.00154 8.36142C3.90718 8.41423 3.80323 8.43937 3.70063 8.43937C3.50156 8.43937 3.3075 8.34475 3.19763 8.17398C3.03114 7.91521 3.12114 7.57952 3.39861 7.42427L3.83815 7.17831C3.76758 6.96344 3.72934 6.73551 3.72934 6.49939C3.72934 6.26326 3.76758 6.03534 3.83815 5.82047L3.39858 5.57451C3.12108 5.41923 3.03111 5.08357 3.19761 4.82477C3.36413 4.56597 3.72401 4.48206 4.00151 4.63733L4.43634 4.88064C4.75822 4.57228 5.17081 4.34703 5.63364 4.24249V3.7671C5.63364 3.46529 5.89597 3.22064 6.21958 3.22064C6.54319 3.22064 6.80552 3.46529 6.80552 3.7671V4.24249C7.25804 4.34468 7.66286 4.56195 7.98153 4.8598L8.37906 4.63733C8.65659 4.48206 9.01647 4.56599 9.18296 4.82477C9.34955 5.08357 9.25955 5.41923 8.98207 5.57451ZM7.53803 6.49939C7.53803 5.82143 6.94661 5.26986 6.21967 5.26986C5.49272 5.26986 4.90131 5.82143 4.90131 6.49939C4.90131 7.17735 5.49272 7.72892 6.21967 7.72892C6.94661 7.72892 7.53803 7.17735 7.53803 6.49939Z" fill="#F80D38"/>
</svg>
